<svg width="155" height="169" viewBox="0 0 155 169" fill="none" xmlns="http://www.w3.org/2000/svg">
<rect width="155" height="169" fill="white"/>
<path d="M80.512 71.6H81.388V80H80.512V71.6ZM75.256 80H74.368V71.6H75.256V80ZM80.596 76.124H75.16V75.344H80.596V76.124Z" fill="black"/>
<path d="M74.368 95V86.6H77.512C78.224 86.6 78.836 86.716 79.348 86.948C79.86 87.172 80.252 87.5 80.524 87.932C80.804 88.356 80.944 88.872 80.944 89.48C80.944 90.072 80.804 90.584 80.524 91.016C80.252 91.44 79.86 91.768 79.348 92C78.836 92.224 78.224 92.336 77.512 92.336H74.86L75.256 91.928V95H74.368ZM80.104 95L77.944 91.952H78.904L81.076 95H80.104ZM75.256 92L74.86 91.58H77.488C78.328 91.58 78.964 91.396 79.396 91.028C79.836 90.66 80.056 90.144 80.056 89.48C80.056 88.808 79.836 88.288 79.396 87.92C78.964 87.552 78.328 87.368 77.488 87.368H74.86L75.256 86.948V92Z" fill="black"/>
<path d="M92.7035 113.5L121.993 113.079M122.5 112.579V142.579M122.5 61L78.5 17L9 87L79 157.5L122.5 113.5" stroke="black"/>
</svg>
